<svg id="visual" viewBox="0 0 4000 2400" width="4000" height="2400" xmlns="http://www.w3.org/2000/svg" xmlns:xlink="http://www.w3.org/1999/xlink" version="1.1"><rect x="0" y="0" width="4000" height="2400" fill="#cfeaff"></rect><defs><linearGradient id="grad1_0" x1="40%" y1="0%" x2="100%" y2="100%"><stop offset="16.666666666666664%" stop-color="#b7d3f8" stop-opacity="1"></stop><stop offset="83.33333333333334%" stop-color="#b7d3f8" stop-opacity="1"></stop></linearGradient></defs><defs><linearGradient id="grad1_1" x1="40%" y1="0%" x2="100%" y2="100%"><stop offset="16.666666666666664%" stop-color="#b7d3f8" stop-opacity="1"></stop><stop offset="83.33333333333334%" stop-color="#bbd8fa" stop-opacity="1"></stop></linearGradient></defs><defs><linearGradient id="grad1_2" x1="40%" y1="0%" x2="100%" y2="100%"><stop offset="16.666666666666664%" stop-color="#bfdcfb" stop-opacity="1"></stop><stop offset="83.33333333333334%" stop-color="#bbd8fa" stop-opacity="1"></stop></linearGradient></defs><defs><linearGradient id="grad1_3" x1="40%" y1="0%" x2="100%" y2="100%"><stop offset="16.666666666666664%" stop-color="#bfdcfb" stop-opacity="1"></stop><stop offset="83.33333333333334%" stop-color="#c4e1fc" stop-opacity="1"></stop></linearGradient></defs><defs><linearGradient id="grad1_4" x1="40%" y1="0%" x2="100%" y2="100%"><stop offset="16.666666666666664%" stop-color="#c9e6fe" stop-opacity="1"></stop><stop offset="83.33333333333334%" stop-color="#c4e1fc" stop-opacity="1"></stop></linearGradient></defs><defs><linearGradient id="grad1_5" x1="40%" y1="0%" x2="100%" y2="100%"><stop offset="16.666666666666664%" stop-color="#c9e6fe" stop-opacity="1"></stop><stop offset="83.33333333333334%" stop-color="#cfeaff" stop-opacity="1"></stop></linearGradient></defs><defs><linearGradient id="grad2_0" x1="0%" y1="0%" x2="60%" y2="100%"><stop offset="16.666666666666664%" stop-color="#b7d3f8" stop-opacity="1"></stop><stop offset="83.33333333333334%" stop-color="#b7d3f8" stop-opacity="1"></stop></linearGradient></defs><defs><linearGradient id="grad2_1" x1="0%" y1="0%" x2="60%" y2="100%"><stop offset="16.666666666666664%" stop-color="#bbd8fa" stop-opacity="1"></stop><stop offset="83.33333333333334%" stop-color="#b7d3f8" stop-opacity="1"></stop></linearGradient></defs><defs><linearGradient id="grad2_2" x1="0%" y1="0%" x2="60%" y2="100%"><stop offset="16.666666666666664%" stop-color="#bbd8fa" stop-opacity="1"></stop><stop offset="83.33333333333334%" stop-color="#bfdcfb" stop-opacity="1"></stop></linearGradient></defs><defs><linearGradient id="grad2_3" x1="0%" y1="0%" x2="60%" y2="100%"><stop offset="16.666666666666664%" stop-color="#c4e1fc" stop-opacity="1"></stop><stop offset="83.33333333333334%" stop-color="#bfdcfb" stop-opacity="1"></stop></linearGradient></defs><defs><linearGradient id="grad2_4" x1="0%" y1="0%" x2="60%" y2="100%"><stop offset="16.666666666666664%" stop-color="#c4e1fc" stop-opacity="1"></stop><stop offset="83.33333333333334%" stop-color="#c9e6fe" stop-opacity="1"></stop></linearGradient></defs><defs><linearGradient id="grad2_5" x1="0%" y1="0%" x2="60%" y2="100%"><stop offset="16.666666666666664%" stop-color="#cfeaff" stop-opacity="1"></stop><stop offset="83.33333333333334%" stop-color="#c9e6fe" stop-opacity="1"></stop></linearGradient></defs><g transform="translate(4000, 0)"><path d="M0 2099.1C-226 2088 -452 2076.9 -648.7 1996.4C-845.3 1915.9 -1012.5 1766.2 -1182 1626.9C-1351.5 1487.7 -1523.3 1359 -1639.9 1191.4C-1756.4 1023.9 -1817.7 817.5 -1885 612.5C-1952.3 407.4 -2025.7 203.7 -2099.1 0L0 0Z" fill="#cce8fe"></path><path d="M0 1749.3C-188.4 1740 -376.7 1730.7 -540.6 1663.7C-704.4 1596.6 -843.8 1471.8 -985 1355.8C-1126.3 1239.7 -1269.5 1132.5 -1366.6 992.9C-1463.7 853.2 -1514.7 681.3 -1570.8 510.4C-1626.9 339.5 -1688.1 169.8 -1749.3 0L0 0Z" fill="#c7e3fd"></path><path d="M0 1399.4C-150.7 1392 -301.4 1384.6 -432.4 1330.9C-563.5 1277.3 -675 1177.4 -788 1084.6C-901 991.8 -1015.6 906 -1093.3 794.3C-1170.9 682.6 -1211.8 545 -1256.7 408.3C-1301.6 271.6 -1350.5 135.8 -1399.4 0L0 0Z" fill="#c2dffc"></path><path d="M0 1049.6C-113 1044 -226 1038.4 -324.3 998.2C-422.6 958 -506.3 883.1 -591 813.5C-675.8 743.8 -761.7 679.5 -819.9 595.7C-878.2 511.9 -908.8 408.8 -942.5 306.2C-976.2 203.7 -1012.9 101.9 -1049.6 0L0 0Z" fill="#bddafa"></path><path d="M0 699.7C-75.3 696 -150.7 692.3 -216.2 665.5C-281.8 638.6 -337.5 588.7 -394 542.3C-450.5 495.9 -507.8 453 -546.6 397.1C-585.5 341.3 -605.9 272.5 -628.3 204.2C-650.8 135.8 -675.2 67.9 -699.7 0L0 0Z" fill="#b9d5f9"></path><path d="M0 349.9C-37.7 348 -75.3 346.1 -108.1 332.7C-140.9 319.3 -168.8 294.4 -197 271.2C-225.3 247.9 -253.9 226.5 -273.3 198.6C-292.7 170.6 -302.9 136.3 -314.2 102.1C-325.4 67.9 -337.6 34 -349.9 0L0 0Z" fill="#b7d3f8"></path></g><g transform="translate(0, 2400)"><path d="M0 -2099.1C195.3 -2018.9 390.6 -1938.7 614.3 -1890.7C838.1 -1842.7 1090.2 -1826.8 1223.8 -1684.4C1357.3 -1542 1372.2 -1273 1502.3 -1091.5C1632.5 -910 1877.7 -816 1996.4 -648.7C2115.1 -481.3 2107.1 -240.7 2099.1 0L0 0Z" fill="#cce8fe"></path><path d="M0 -1749.3C162.7 -1682.5 325.5 -1615.6 511.9 -1575.6C698.4 -1535.6 908.5 -1522.3 1019.8 -1403.6C1131.1 -1285 1143.5 -1060.8 1252 -909.6C1360.4 -758.4 1564.8 -680 1663.7 -540.6C1762.6 -401.1 1755.9 -200.6 1749.3 0L0 0Z" fill="#c7e3fd"></path><path d="M0 -1399.4C130.2 -1346 260.4 -1292.5 409.6 -1260.5C558.7 -1228.4 726.8 -1217.9 815.8 -1122.9C904.9 -1028 914.8 -848.7 1001.6 -727.7C1088.3 -606.7 1251.8 -544 1330.9 -432.4C1410 -320.9 1404.7 -160.4 1399.4 0L0 0Z" fill="#c2dffc"></path><path d="M0 -1049.6C97.6 -1009.5 195.3 -969.4 307.2 -945.4C419 -921.3 545.1 -913.4 611.9 -842.2C678.7 -771 686.1 -636.5 751.2 -545.8C816.2 -455 938.9 -408 998.2 -324.3C1057.5 -240.7 1053.6 -120.3 1049.6 0L0 0Z" fill="#bddafa"></path><path d="M0 -699.7C65.1 -673 130.2 -646.2 204.8 -630.2C279.4 -614.2 363.4 -608.9 407.9 -561.5C452.4 -514 457.4 -424.3 500.8 -363.8C544.2 -303.3 625.9 -272 665.5 -216.2C705 -160.4 702.4 -80.2 699.7 0L0 0Z" fill="#b9d5f9"></path><path d="M0 -349.9C32.5 -336.5 65.1 -323.1 102.4 -315.1C139.7 -307.1 181.7 -304.5 204 -280.7C226.2 -257 228.7 -212.2 250.4 -181.9C272.1 -151.7 313 -136 332.7 -108.1C352.5 -80.2 351.2 -40.1 349.9 0L0 0Z" fill="#b7d3f8"></path></g></svg>